<svg width="158" height="43" viewBox="0 0 158 43" fill="none" xmlns="http://www.w3.org/2000/svg">
<path d="M14.52 7.84C14.52 9.09333 13.9067 10 12.68 10.56C12.28 10.72 11.6133 11.04 10.68 11.52C7.66667 15.5733 6.16 19.4267 6.16 23.08C6.16 24.6 6.50667 26.1867 7.2 27.84C8.05333 29.9467 9.18667 31 10.6 31C10.6533 31 10.7333 31 10.84 31C10.9467 31 11.0267 31 11.08 31C11.9867 31 12.7067 31.32 13.24 31.96C13.7733 32.5733 14.04 33.2933 14.04 34.12C14.04 34.8933 13.8 35.56 13.32 36.12C12.84 36.68 12.16 36.9733 11.28 37C11.04 37 10.7733 37 10.48 37C7.65333 37 5.17333 35.4 3.04 32.2C1.12 29.24 0.16 26.2 0.16 23.08C0.16 19.9867 0.906667 16.76 2.4 13.4C4.10667 9.56 6.25333 7 8.84 5.72C9.32 5.48 9.82667 5.25333 10.36 5.04C10.8133 4.82667 11.2533 4.72 11.68 4.72C12.48 4.72 13.1467 5.04 13.68 5.68C14.24 6.29333 14.52 7.01333 14.52 7.84ZM32.1406 28.96C32.1406 31.4133 32.0206 33.8533 31.7806 36.28C31.754 37.16 31.474 37.8267 30.9406 38.28C30.434 38.76 29.8073 39 29.0606 39C28.2073 39 27.474 38.72 26.8606 38.16C26.1673 37.5467 25.8206 36.76 25.8206 35.8C25.8206 35.7467 25.8206 35.7067 25.8206 35.68C26.034 33.4667 26.1406 31.24 26.1406 29C26.1406 28.0933 26.114 27.2267 26.0606 26.4C26.0073 25.3867 25.874 24.32 25.6606 23.2C25.2873 21.4933 25.074 20.48 25.0206 20.16C24.034 20.4533 22.9406 21.16 21.7406 22.28L23.1806 35.76C23.2073 35.8933 23.2206 36.0267 23.2206 36.16C23.2206 37.0667 22.914 37.7733 22.3006 38.28C21.6873 38.8133 20.9806 39.08 20.1806 39.08C19.434 39.08 18.794 38.8667 18.2606 38.44C17.6473 37.96 17.3006 37.28 17.2206 36.4L14.1806 7.84C14.154 7.70667 14.1406 7.57333 14.1406 7.44C14.1406 6.56 14.4473 5.85333 15.0606 5.32C15.674 4.78667 16.394 4.52 17.2206 4.52C17.9406 4.52 18.5806 4.76 19.1406 5.24C19.7273 5.69333 20.0606 6.34666 20.1406 7.2L21.0206 15.36C22.6206 14.4267 24.0606 13.96 25.3406 13.96C27.8206 13.96 29.634 15.6267 30.7806 18.96C31.6873 21.5467 32.1406 24.88 32.1406 28.96ZM51.4534 21.72C51.4534 23.1867 50.2668 24.32 47.8934 25.12C46.7468 25.4933 44.4534 25.9467 41.0134 26.48C41.7068 27.3333 42.4934 27.9733 43.3734 28.4C44.0934 28.7467 44.7601 28.92 45.3734 28.92C45.6401 28.8133 45.9068 28.7067 46.1734 28.6C46.5734 28.4667 46.9734 28.4 47.3734 28.4C48.2268 28.4 48.9334 28.72 49.4934 29.36C50.0534 30 50.3334 30.7333 50.3334 31.56C50.3334 32.84 49.6934 33.72 48.4134 34.2C48.2534 34.2533 47.9068 34.3733 47.3734 34.56C46.3868 34.9067 45.6268 35.08 45.0934 35.08C44.0268 35.08 42.6001 34.6667 40.8134 33.84C38.3334 32.6667 36.5734 31.0933 35.5334 29.12C33.8801 26 33.0534 23.1333 33.0534 20.52C33.0534 18.1467 33.7601 15.88 35.1734 13.72C36.5868 11.56 38.2934 10.2133 40.2934 9.68C40.9068 9.52 41.5868 9.44 42.3334 9.44C44.7868 9.44 46.6668 10 47.9734 11.12C49.1468 12.1333 50.0534 13.7733 50.6934 16.04C51.2001 17.88 51.4534 19.7733 51.4534 21.72ZM45.2534 19.32C44.9334 17.32 44.5734 16.1467 44.1734 15.8C43.6134 15.5867 43.0801 15.48 42.5734 15.48C40.9734 15.48 39.8534 16.6533 39.2134 19C39.0801 19.5333 39.0134 20.0933 39.0134 20.68L45.2534 19.32ZM69.2359 27.92C69.2359 28.4533 69.0759 28.9733 68.7559 29.48C68.7026 29.6133 68.5159 29.92 68.1959 30.4C66.0093 33.5467 63.3293 35.12 60.1559 35.12C58.2359 35.12 56.5826 34.4533 55.1959 33.12C53.7026 31.68 52.7426 29.64 52.3159 27C52.1559 25.9067 52.0759 24.8933 52.0759 23.96C52.0759 20.3067 53.4759 17.4533 56.2759 15.4C57.5826 14.44 59.0493 13.96 60.6759 13.96C63.2359 13.96 65.4626 14.96 67.3559 16.96C67.9693 17.5733 68.2759 18.2667 68.2759 19.04C68.2759 19.84 67.9559 20.5467 67.3159 21.16C66.7026 21.7733 65.9959 22.08 65.1959 22.08C64.3959 22.08 63.6893 21.76 63.0759 21.12C62.3026 20.3467 61.5026 19.96 60.6759 19.96C60.3559 19.96 60.0759 20.04 59.8359 20.2C58.6359 21.1067 58.0359 22.6 58.0359 24.68C58.0359 25.8533 58.2493 26.88 58.6759 27.76C59.1293 28.64 59.7026 29.08 60.3959 29.08C61.0359 29.08 61.7159 28.7067 62.4359 27.96C62.9159 27.48 63.2759 27.0267 63.5159 26.6C64.0759 25.56 64.9159 25.04 66.0359 25.04C66.8626 25.04 67.5959 25.32 68.2359 25.88C68.9026 26.44 69.2359 27.12 69.2359 27.92ZM91.0094 39.44C91.0094 40.2667 90.6894 40.96 90.0494 41.52C89.4094 42.08 88.6894 42.36 87.8894 42.36C86.5827 42.36 85.676 41.7067 85.1694 40.4L79.1694 24.92L77.0494 26.84L78.0494 38.64C78.0494 38.7467 78.0494 38.8533 78.0494 38.96C78.0494 39.8667 77.7427 40.5733 77.1294 41.08C76.5427 41.6133 75.836 41.88 75.0094 41.88C74.2627 41.88 73.6227 41.6533 73.0894 41.2C72.476 40.6933 72.1294 40 72.0494 39.12L69.0494 3.24C69.0494 3.13333 69.0494 3.02667 69.0494 2.92C69.0494 2.01333 69.3694 1.29333 70.0094 0.759997C70.5694 0.253331 71.2627 -2.38419e-06 72.0894 -2.38419e-06C72.836 -2.38419e-06 73.4894 0.239998 74.0494 0.719998C74.636 1.2 74.9694 1.88 75.0494 2.76L76.4094 19.32L83.8894 12.6C84.5027 12.0667 85.1694 11.8 85.8894 11.8C86.6894 11.8 87.396 12.12 88.0094 12.76C88.6227 13.3733 88.9294 14.08 88.9294 14.88C88.9294 15.7067 88.5827 16.44 87.8894 17.08L83.9294 20.64L84.0094 20.8L90.7694 38.24C90.9294 38.64 91.0094 39.04 91.0094 39.44ZM116.707 19.6C116.707 21.7333 116.44 23.68 115.907 25.44L115.787 25.92C115.254 27.7333 114 29.6267 112.027 31.6C109.867 33.7333 107.867 34.8 106.027 34.8C105.547 34.8 104.827 34.8267 103.867 34.88C102.907 34.9333 102.2 34.96 101.747 34.96C99.1335 34.96 97.0935 34.1333 95.6269 32.48C94.1602 31.1733 93.0135 29.5333 92.1869 27.56C91.3869 25.5867 90.9869 23.5467 90.9869 21.44C90.9869 18.9067 91.5602 16.6667 92.7069 14.72C92.8135 14.5333 92.9335 14.3067 93.0669 14.04C93.3602 12.68 94.9469 11.2667 97.8269 9.8C100.414 8.46667 102.52 7.73333 104.147 7.6C104.574 7.57333 104.987 7.56 105.387 7.56C109.227 7.56 112.107 8.97333 114.027 11.8C115.814 13.7467 116.707 16.3467 116.707 19.6ZM110.707 19.44C110.707 17.7867 110.32 16.5733 109.547 15.8L109.147 15.28C108.4 14.1333 107.174 13.56 105.467 13.56C103.574 13.56 101.254 14.56 98.5069 16.56C98.2935 16.96 97.9735 17.56 97.5469 18.36C97.2269 19.3733 97.0669 20.4267 97.0669 21.52C97.0669 24.4 97.9602 26.5867 99.7469 28.08L100.107 28.48C100.4 28.8267 101.147 29 102.347 29C102.8 29 103.387 28.9733 104.107 28.92C104.96 28.84 105.4 28.8 105.427 28.8C106.36 28.4 107.267 27.7467 108.147 26.84C109.027 25.9333 109.68 24.9733 110.107 23.96C110.507 22.04 110.707 20.5333 110.707 19.44ZM134.668 33.32C134.668 34.2533 134.361 34.9733 133.748 35.48C133.161 36.0133 132.468 36.28 131.668 36.28C130.174 36.28 129.228 35.6 128.828 34.24C127.388 34.9067 125.961 35.24 124.548 35.24C121.348 35.24 119.241 33.7333 118.228 30.72C117.801 29.44 117.588 27.8667 117.588 26C117.588 24.0267 117.801 22.0267 118.228 20C118.548 18.4 119.494 17.6 121.068 17.6C121.894 17.6 122.614 17.8667 123.228 18.4C123.868 18.9333 124.188 19.6267 124.188 20.48C124.188 20.72 124.161 20.96 124.108 21.2C123.734 22.9067 123.548 24.8933 123.548 27.16C123.548 28.3867 123.668 29.04 123.908 29.12C124.148 29.1733 124.414 29.2 124.708 29.2C125.934 29.2 126.948 28.7333 127.747 27.8C127.908 27.6133 128.081 27.4533 128.268 27.32L127.747 19.76C127.747 19.68 127.747 19.6 127.747 19.52C127.747 18.5867 128.068 17.8533 128.708 17.32C129.268 16.8133 129.961 16.56 130.788 16.56C131.561 16.56 132.228 16.8 132.788 17.28C133.374 17.76 133.694 18.4533 133.748 19.36L134.668 33.08C134.668 33.16 134.668 33.24 134.668 33.32ZM157.113 16.28C156.953 17.9867 156.007 18.88 154.273 18.96L147.833 19.28C147.727 19.76 147.66 20.1333 147.633 20.4C147.233 22.0533 146.767 24.6267 146.233 28.12C146.127 29.4533 146.193 30.3867 146.433 30.92C146.647 31.0533 146.927 31.1333 147.273 31.16C147.967 31.24 148.7 31.1067 149.473 30.76C149.58 30.6267 149.82 30.2533 150.193 29.64C150.833 28.52 151.753 28.0133 152.953 28.12C153.78 28.2 154.487 28.5467 155.073 29.16C155.66 29.7733 155.913 30.48 155.833 31.28C155.807 31.76 155.66 32.2267 155.393 32.68C155.313 32.7867 155.14 33.0667 154.873 33.52C154.047 34.8267 152.887 35.8 151.393 36.44C150.007 37.08 148.54 37.3333 146.993 37.2C145.287 37.04 143.833 36.4533 142.633 35.44C141.327 34.32 140.553 32.84 140.313 31C140.02 28.76 140.46 24.96 141.633 19.6L138.673 19.72C137.66 19.7733 136.847 19.44 136.233 18.72C135.7 18.08 135.473 17.32 135.553 16.44C135.713 14.7333 136.66 13.8267 138.393 13.72L143.073 13.52C143.393 12.1867 144.02 9.84 144.953 6.48C145.407 4.85333 146.433 4.12 148.033 4.28C148.86 4.33333 149.553 4.65333 150.113 5.24C150.673 5.82666 150.913 6.56 150.833 7.44C150.833 7.65333 150.807 7.86666 150.753 8.08C150.513 8.88 150.047 10.5867 149.353 13.2L153.953 12.96C154.993 12.9067 155.793 13.2267 156.353 13.92C156.94 14.5867 157.193 15.3733 157.113 16.28Z" fill="black"/>
</svg>
