<svg width="32" height="33" viewBox="0 0 32 33" fill="none" xmlns="http://www.w3.org/2000/svg">
<g id="Frame">
<path id="Vector" d="M18.9494 22.5615C17.5547 23.3966 15.959 23.8364 14.3334 23.8335C13.1512 23.8351 11.9804 23.6031 10.8883 23.1507C9.79613 22.6983 8.80415 22.0345 7.96938 21.1975C7.13236 20.3627 6.46858 19.3708 6.0162 18.2786C5.56382 17.1864 5.33177 16.0156 5.33338 14.8335C5.33338 12.3482 6.34005 10.0988 7.96938 8.4695C8.80415 7.63248 9.79613 6.9687 10.8883 6.51632C11.9804 6.06394 13.1512 5.83189 14.3334 5.8335C16.8187 5.8335 19.068 6.84017 20.6974 8.4695C21.5344 9.30428 22.1982 10.2963 22.6506 11.3884C23.1029 12.4806 23.335 13.6514 23.3334 14.8335C23.3357 16.43 22.9118 17.9983 22.1054 19.3762C21.4161 20.5522 21.5267 22.0268 22.4907 22.9908L27.628 28.1282" stroke="black" stroke-width="2"/>
</g>
</svg>
