<svg width="76" height="55" viewBox="0 0 76 55" fill="none" xmlns="http://www.w3.org/2000/svg">
<g id="Logo Nimiaoo 2">
<g id="Layer_1">
<g id="Group">
<g id="Layer_1-2">
<g id="Group_2">
<path id="Vector" d="M28.8086 20.9283C28.8086 21.6813 28.8086 22.4344 28.8246 23.1715C28.8086 24.1969 28.5677 24.9981 28.1021 25.5909C27.6365 26.1838 27.0425 26.4882 26.3039 26.4882C25.4369 26.4882 24.586 26.0716 23.7351 25.2224L18.212 19.5022L19.095 25.7672C19.1271 25.9274 19.1432 26.0877 19.1432 26.2319C19.1432 27.1131 18.8542 27.8181 18.2602 28.3469C17.6661 28.8757 16.9597 29.132 16.1408 29.132C14.4711 29.1481 13.4917 28.3149 13.2509 26.6164L11.0994 11.3786C11.0673 11.1382 11.0513 10.9139 11.0513 10.6735C11.0513 9.76023 11.276 9.02318 11.7417 8.46237C12.2073 7.90157 12.8013 7.62918 13.5399 7.61315C14.4229 7.61315 15.306 8.02975 16.1408 8.87897L22.7717 15.7528C22.6433 11.3305 22.4185 8.43032 22.0974 7.05235C22.0171 6.79598 21.969 6.52359 21.969 6.26722C21.969 5.43403 22.258 4.74504 22.8681 4.21628C23.4942 3.70354 24.2007 3.43115 25.0195 3.43115C26.5126 3.43115 27.4439 4.16821 27.8292 5.67437C28.4072 8.10986 28.7283 13.1892 28.8086 20.9283Z" fill="#2B2B2B"/>
<path id="Vector_2" d="M34.877 13.4128V13.525L34.7325 26.087C34.7325 26.744 34.5237 27.2407 34.1224 27.6092C33.737 27.9617 33.2554 28.154 32.7095 28.17C32.1475 28.186 31.6659 28.0258 31.2645 27.6893C30.7989 27.3368 30.558 26.8241 30.542 26.1832V26.071L30.6865 13.509C30.6865 12.852 30.9113 12.3553 31.3287 11.9868C31.6819 11.6343 32.1475 11.458 32.7095 11.442C33.2714 11.426 33.7691 11.5862 34.2026 11.9387C34.6361 12.2912 34.8609 12.7879 34.877 13.4289V13.4128Z" fill="#2B2B2B"/>
<path id="Vector_3" d="M37.9756 34.9314C37.8632 33.2169 37.4137 31.9031 36.6269 30.9898C35.8402 30.0764 34.8448 29.5797 33.5925 29.4996C31.2002 29.3554 28.6956 30.9897 27.1221 32.6561C26.1588 33.6816 25.34 34.8353 24.6014 36.037C23.8629 37.2387 23.2849 38.3603 22.2413 39.3057C21.6793 39.8184 21.0532 40.2671 20.3307 40.5074C19.6082 40.7477 18.7894 40.7477 18.115 40.3632C17.3283 39.9146 16.8788 39.0173 16.7343 38.12C16.5898 37.2227 16.6861 36.3094 16.7022 35.3961C16.7182 34.4828 16.6861 33.5534 16.2687 32.7363C15.6264 31.4865 14.1975 30.7654 12.7846 30.7814C11.3718 30.7975 10.0392 31.4224 8.96345 32.3197C7.39002 33.6175 6.0253 35.4281 5.39914 37.3669C4.56426 39.9947 4.41976 42.9109 5.43125 45.4906C6.77991 48.9195 10.2639 51.403 13.9567 51.5472C14.0691 51.5472 14.1815 51.5472 14.2938 51.5472C16.7503 51.5472 19.8169 50.8583 21.6793 49.1598C22.8193 48.1183 23.4776 46.6923 23.9271 45.2502C24.3767 43.8081 24.762 42.35 25.1634 40.908C25.6611 39.1775 26.2712 37.447 27.3951 36.037C28.1176 35.1397 29.0809 34.4026 30.1727 34.0181C31.0236 33.7137 32.4204 33.3772 33.2232 33.938C33.9457 34.4347 33.8815 34.9795 33.8815 35.7646C33.8815 35.8287 33.8333 36.4215 33.8815 36.4376C33.1429 36.1171 32.4204 35.9409 31.6819 35.8928C30.8952 35.8447 30.1887 35.9729 29.5465 36.2613C27.4272 37.2387 26.3033 38.9211 26.1588 41.3246C26.0625 42.8147 26.4317 44.1286 27.2345 45.2662C28.1176 46.484 29.3057 47.1409 30.8309 47.2371C31.5855 47.2851 32.3723 47.173 33.2232 46.9166C33.2393 47.4774 33.448 47.9421 33.8333 48.2786C34.2186 48.615 34.6682 48.8073 35.182 48.8394C35.7278 48.8714 36.2095 48.7272 36.643 48.4067C37.0604 48.0863 37.3013 47.6056 37.3334 46.9647C37.3655 46.6442 37.4939 45.4745 37.6866 43.4717C37.815 42.0296 37.8953 40.8439 37.9595 39.9146C38.0719 38.0238 38.088 36.3574 37.9917 34.9154L37.9756 34.9314ZM33.464 41.3726C33.2232 41.7091 32.87 41.8213 32.5168 41.9815C32.0993 42.1738 31.6337 42.286 31.1681 42.2539C30.5419 42.2219 30.269 41.6611 30.3332 40.6035C30.4135 39.4018 30.8791 38.825 31.7621 38.8731C32.2117 38.9051 32.6291 39.1455 32.9824 39.4018C33.2071 39.5781 33.4319 39.7864 33.5764 40.0267C33.8333 40.4433 33.753 40.956 33.464 41.3406V41.3726Z" fill="#2B2B2B"/>
<path id="Vector_4" d="M46.5009 23.86C46.6936 24.0043 46.9344 24.1164 47.1592 24.0844C47.4161 24.0523 47.6087 23.8761 47.8175 23.7319C48.0262 23.5877 48.2991 23.4755 48.5239 23.5716C48.7487 23.6838 48.845 23.9882 48.7647 24.2286C48.6844 24.4689 48.4918 24.6612 48.2831 24.7894C47.7532 25.1419 47.0789 25.2701 46.4527 25.1579C45.7784 25.0297 44.9917 24.5811 44.9917 23.812C44.9917 23.5556 45.088 23.3313 45.3449 23.2672C45.8105 23.155 46.1798 23.6037 46.5009 23.844V23.86Z" fill="#2B2B2B"/>
<path id="Vector_5" d="M52.746 23.3954C52.5694 23.5556 52.3446 23.6998 52.1038 23.6838C51.8469 23.6838 51.6382 23.5236 51.4134 23.3954C51.1887 23.2672 50.9157 23.1871 50.6909 23.3153C50.4662 23.4435 50.418 23.7639 50.5143 23.9882C50.6107 24.2286 50.8354 24.3888 51.0602 24.501C51.6221 24.7894 52.3125 24.8695 52.9226 24.6772C53.5809 24.485 54.3034 23.9562 54.2392 23.1871C54.2231 22.9307 54.0947 22.7224 53.8217 22.6904C53.3561 22.6263 53.019 23.107 52.73 23.3954H52.746Z" fill="#2B2B2B"/>
<path id="Vector_6" d="M71.1618 38.313C70.937 35.7653 69.8453 33.7624 67.8865 32.3043C65.992 30.8943 63.9208 30.4136 61.6409 30.8783C59.3611 31.343 57.5147 32.5126 56.0858 34.4194C56.0858 34.4354 56.0536 34.4674 56.0376 34.4835C55.3793 32.5928 54.3678 30.9424 53.0192 29.5324C50.8999 27.3052 48.5237 26.4399 45.8745 26.9366C43.1932 27.4334 41.2666 29.0998 40.0946 31.9198C39.0349 34.4354 38.762 37.1593 39.3078 40.0915C39.8537 43.0237 41.0739 45.4752 42.9685 47.4461C45.0878 49.6733 47.48 50.5385 50.1613 50.0418C52.682 49.5771 54.5284 48.0549 55.7165 45.4913C56.1981 46.1482 56.7761 46.7411 57.4665 47.2538C59.3611 48.6638 61.4483 49.1285 63.7602 48.6638C65.9919 48.2152 67.8223 47.0455 69.2512 45.1388C70.7444 43.1519 71.3866 40.8766 71.1618 38.329V38.313ZM51.3976 43.1199C50.9801 43.9531 50.4985 44.4177 49.9526 44.4978C49.2783 44.594 48.4594 44.2415 47.4961 43.4403C46.2598 42.3828 45.3447 40.8927 44.7346 38.9539C44.574 38.5213 44.4616 38.0726 44.3813 37.656C44.0924 36.1018 44.2047 34.82 44.7025 33.7945C45.1199 32.9613 45.6176 32.4966 46.1956 32.4165C46.8378 32.3204 47.6727 32.6729 48.6521 33.474C49.8884 34.5315 50.8035 36.0057 51.3976 37.9284C51.526 38.3931 51.6384 38.8417 51.7187 39.2743C52.0077 40.8286 51.8953 42.1104 51.3976 43.1359V43.1199ZM65.2695 42.1745C64.5951 43.0718 63.7603 43.6006 62.7809 43.7768C61.8978 43.937 61.1111 43.7768 60.4368 43.2641C59.6822 42.7033 59.2487 41.822 59.1202 40.6363C59.0078 39.4506 59.329 38.361 60.0836 37.3516C60.7579 36.4543 61.5928 35.9255 62.5721 35.7493C63.4552 35.5891 64.2419 35.7493 64.9162 36.262C65.6708 36.8228 66.1043 37.6881 66.2007 38.8417C66.3291 40.0595 66.0241 41.1811 65.2695 42.1905V42.1745Z" fill="#2B2B2B"/>
<path id="Vector_7" d="M23.4935 29.8532C26.239 30.5743 25.8215 33.0258 22.9958 32.8175C22.2733 35.5574 19.8168 35.1408 20.0255 32.3208C17.2801 31.5997 17.6975 29.1482 20.5233 29.3565C21.2457 26.6166 23.7022 27.0332 23.4935 29.8532Z" fill="#2B2B2B"/>
<g id="Group_3">
<path id="Vector_8" d="M63.1024 27.0491C63.1024 27.9785 62.7653 28.7155 62.107 29.2923C61.4487 29.8692 60.662 30.1576 59.7629 30.1576C58.061 30.1576 57.0174 29.2923 56.6481 27.5619L54.6091 17.4033C53.7421 18.3807 52.8912 19.3581 52.0563 20.3355C50.6916 21.6333 49.4874 22.2743 48.4117 22.2743C47.7534 22.2743 47.1273 22.0499 46.5493 21.5853L43.4345 19.1177L43.6432 24.213V24.3893C43.6432 25.3667 43.3221 26.1518 42.6639 26.7287C42.0216 27.3055 41.251 27.5939 40.384 27.5939C39.517 27.5939 38.7624 27.3215 38.1362 26.7767C37.494 26.2319 37.1729 25.4628 37.1408 24.4854C37.1408 24.4534 37.0445 23.1876 36.8357 20.688C36.6591 18.589 36.5789 16.8265 36.5789 15.4164C36.5789 10.6896 37.4619 8.33427 39.228 8.33427C39.9505 8.33427 40.8496 8.75086 41.9093 9.58406L48.2833 14.6794C49.375 13.3815 50.4989 12.0676 51.6228 10.7537C53.9829 8.30222 55.8775 7.08447 57.2904 7.08447C58.5266 7.08447 59.3455 8.04585 59.7147 9.98463L63.0061 26.28C63.0703 26.5364 63.0864 26.7928 63.0864 27.0651L63.1024 27.0491Z" fill="#2B2B2B"/>
<path id="Vector_9" d="M32.8858 10.1445C34.0385 10.1445 34.973 9.21191 34.973 8.0615C34.973 6.9111 34.0385 5.97852 32.8858 5.97852C31.7331 5.97852 30.7986 6.9111 30.7986 8.0615C30.7986 9.21191 31.7331 10.1445 32.8858 10.1445Z" fill="#2B2B2B"/>
</g>
</g>
</g>
<path id="Vector_10" d="M67.2767 12.4367L67.3088 12.5489L69.4442 24.9346C69.5405 25.5756 69.4442 26.1043 69.1231 26.5369C68.802 26.9535 68.3685 27.2259 67.8226 27.3541C67.2767 27.4823 66.779 27.4022 66.3134 27.1458C65.7996 26.8734 65.4625 26.4248 65.334 25.7999L65.3019 25.6877L63.1665 13.302C63.0702 12.661 63.1665 12.1163 63.5197 11.6836C63.8087 11.2831 64.2262 11.0107 64.7721 10.8985C65.318 10.7703 65.8317 10.8504 66.3294 11.1228C66.8111 11.3792 67.1322 11.8439 67.2767 12.4688V12.4367Z" fill="#2B2B2B"/>
<path id="Vector_11" d="M64.2908 9.6484C65.4435 9.6484 66.378 8.71581 66.378 7.56541C66.378 6.41501 65.4435 5.48242 64.2908 5.48242C63.1381 5.48242 62.2036 6.41501 62.2036 7.56541C62.2036 8.71581 63.1381 9.6484 64.2908 9.6484Z" fill="#2B2B2B"/>
</g>
</g>
</g>
</svg>
