<svg width="20" height="21" viewBox="0 0 20 21" fill="none" xmlns="http://www.w3.org/2000/svg">
<path id="Vector" d="M18.4211 16.9706C18.8265 16.9708 19.2164 17.1454 19.5099 17.4581C19.8033 17.7709 19.9779 18.1978 19.9974 18.6505C20.0169 19.1032 19.8798 19.5469 19.6146 19.8896C19.3493 20.2324 18.9762 20.448 18.5726 20.4918L18.4211 20.5H1.57895C1.17346 20.4998 0.783584 20.3252 0.490119 20.0125C0.196654 19.6997 0.0220926 19.2728 0.00260604 18.8201C-0.0168805 18.3674 0.120202 17.9237 0.385448 17.5809C0.650694 17.2382 1.02377 17.0226 1.42737 16.9788L1.57895 16.9706H18.4211ZM18.4211 8.73529C18.8398 8.73529 19.2414 8.92122 19.5375 9.25216C19.8336 9.58311 20 10.032 20 10.5C20 10.968 19.8336 11.4169 19.5375 11.7478C19.2414 12.0788 18.8398 12.2647 18.4211 12.2647H1.57895C1.16018 12.2647 0.758573 12.0788 0.462463 11.7478C0.166353 11.4169 0 10.968 0 10.5C0 10.032 0.166353 9.58311 0.462463 9.25216C0.758573 8.92122 1.16018 8.73529 1.57895 8.73529H18.4211ZM18.4211 0.5C18.8398 0.5 19.2414 0.685924 19.5375 1.01687C19.8336 1.34782 20 1.79668 20 2.26471C20 2.73274 19.8336 3.1816 19.5375 3.51254C19.2414 3.84349 18.8398 4.02941 18.4211 4.02941H1.57895C1.16018 4.02941 0.758573 3.84349 0.462463 3.51254C0.166353 3.1816 0 2.73274 0 2.26471C0 1.79668 0.166353 1.34782 0.462463 1.01687C0.758573 0.685924 1.16018 0.5 1.57895 0.5H18.4211Z" fill="black"/>
</svg>
