<svg width="43" height="43" viewBox="0 0 43 43" fill="none" xmlns="http://www.w3.org/2000/svg">
<g id="arcticons:tokopedia">
<path id="Vector" d="M23.8514 12.1212C20.8532 9.58888 9.12256 10.1571 9.12256 10.1571L8.70911 38.6969C8.70911 38.6969 24.3164 38.814 29.1223 38.6969C33.9282 38.5797 37.2874 34.7563 37.3389 31.8106C37.3905 28.8648 37.3389 10.6745 37.3389 10.6745C31.3443 9.94989 26.9003 10.5189 23.8514 12.1212Z" stroke="white" stroke-width="0.617021" stroke-linecap="round" stroke-linejoin="round"/>
<path id="Vector_2" d="M17.2849 28.0355C20.6527 28.0355 23.3828 25.3054 23.3828 21.9377C23.3828 18.5699 20.6527 15.8398 17.2849 15.8398C13.9172 15.8398 11.1871 18.5699 11.1871 21.9377C11.1871 25.3054 13.9172 28.0355 17.2849 28.0355Z" stroke="white" stroke-width="0.617021" stroke-linecap="round" stroke-linejoin="round"/>
<path id="Vector_3" d="M28.222 26.4459C29.445 27.0009 30.8293 27.0876 32.112 26.6896C33.3948 26.2916 34.4868 25.4366 35.1809 24.2868C35.875 23.137 36.1229 21.7724 35.8776 20.4519C35.6322 19.1315 34.9107 17.947 33.8499 17.1232C32.7891 16.2995 31.4628 15.8938 30.1227 15.9831C28.7826 16.0725 27.5219 16.6506 26.5798 17.6079C25.6378 18.5652 25.0799 19.8349 25.012 21.1763C24.9441 22.5177 25.3709 23.8373 26.2115 24.8848M9.1226 10.1568L5.19433 12.9995L5.02039 35.2212L8.70915 38.6975M29.666 10.5065C29.4017 8.9408 28.599 7.51656 27.3964 6.4797C26.1939 5.44284 24.667 4.85846 23.0795 4.82747C21.492 4.79648 19.9434 5.32083 18.7013 6.30997C17.4592 7.29912 16.6015 8.69095 16.2763 10.2451" stroke="white" stroke-width="0.617021" stroke-linecap="round" stroke-linejoin="round"/>
<path id="Vector_4" d="M18.1529 18.2967C18.3155 18.776 18.3011 19.2976 18.1124 19.7672C17.9236 20.2369 17.573 20.6234 17.124 20.8569C16.675 21.0905 16.1573 21.1556 15.6644 21.0405C15.1716 20.9253 14.7362 20.6376 14.4371 20.2294C14.0482 20.9378 13.8974 21.7526 14.007 22.5533C14.1166 23.354 14.4808 24.0983 15.0458 24.6761C15.6108 25.254 16.3466 25.6349 17.1447 25.7625C17.9427 25.8901 18.7607 25.7577 19.4777 25.3849C20.1948 25.012 20.7729 24.4184 21.1267 23.6918C21.4806 22.9652 21.5914 22.1441 21.4428 21.3497C21.2942 20.5553 20.8941 19.8297 20.3015 19.2801C19.709 18.7305 18.9554 18.386 18.1521 18.2976M30.2786 17.9951C30.4854 18.4415 30.5258 18.947 30.3927 19.4205C30.2595 19.8941 29.9616 20.3044 29.5525 20.5776C29.1435 20.8508 28.6502 20.9689 28.1618 20.9105C27.6734 20.852 27.2219 20.621 26.8888 20.2591C26.5881 20.9856 26.5289 21.7896 26.7201 22.5524C26.9113 23.3152 27.3426 23.9962 27.9505 24.4951C28.5584 24.9939 29.3105 25.2841 30.0959 25.3227C30.8813 25.3614 31.6583 25.1465 32.3122 24.7098C32.9662 24.273 33.4623 23.6376 33.7275 22.8973C33.9926 22.157 34.0127 21.3511 33.7848 20.5985C33.5569 19.8459 33.093 19.1866 32.4617 18.7178C31.8303 18.249 31.065 17.9957 30.2786 17.9951ZM21.5069 28.2712C21.5069 25.8088 23.2822 24.808 25.6336 24.808C27.7271 24.808 28.9159 27.6506 28.9159 27.6506C26.8583 28.5257 24.6394 28.9573 22.4038 28.9172C23.6924 30.1131 25.3148 30.8882 27.0549 31.1392C27.0549 31.1392 26.332 31.6811 23.8513 31.6811C21.8356 31.682 21.5069 29.5378 21.5069 28.2712Z" stroke="white" stroke-width="0.617021" stroke-linecap="round" stroke-linejoin="round"/>
<path id="Vector_5" d="M26.7132 28.4033C26.7663 29.2861 26.6903 30.1718 26.4877 31.0327" stroke="white" stroke-width="0.617021" stroke-linecap="round" stroke-linejoin="round"/>
</g>
</svg>
