<svg width="46" height="46" viewBox="0 0 46 46" fill="none" xmlns="http://www.w3.org/2000/svg">
<g id="ic:baseline-whatsapp">
<path id="Vector" d="M36.2422 9.34101C34.4978 7.57952 32.4202 6.18283 30.1305 5.23234C27.8409 4.28185 25.3849 3.79658 22.9058 3.80479C12.5183 3.80479 4.05222 12.2708 4.05222 22.6584C4.05222 25.9877 4.92737 29.222 6.5635 32.0757L3.90002 41.8544L13.8881 39.229C16.6467 40.732 19.7477 41.531 22.9058 41.531C33.2934 41.531 41.7594 33.065 41.7594 22.6774C41.7594 17.6358 39.7999 12.8987 36.2422 9.34101ZM22.9058 38.3348C20.0901 38.3348 17.3315 37.5738 14.9154 36.147L14.3447 35.8045L8.40891 37.3646L9.98797 31.581L9.60747 30.9913C8.04277 28.4934 7.2121 25.6059 7.21034 22.6584C7.21034 14.0211 14.2495 6.98194 22.8868 6.98194C27.0723 6.98194 31.0104 8.61807 33.9592 11.5859C35.4196 13.0392 36.5769 14.7679 37.364 16.6719C38.151 18.5759 38.5522 20.6172 38.5442 22.6774C38.5823 31.3147 31.5431 38.3348 22.9058 38.3348ZM31.505 26.6156C31.0294 26.3873 28.7084 25.2458 28.2898 25.0745C27.8523 24.9223 27.5479 24.8462 27.2245 25.3028C26.901 25.7785 26.0069 26.8439 25.7405 27.1482C25.4742 27.4717 25.1888 27.5097 24.7132 27.2624C24.2376 27.0341 22.7156 26.5204 20.9272 24.9223C19.5194 23.6667 18.5872 22.1257 18.3018 21.6501C18.0355 21.1745 18.2638 20.9271 18.5111 20.6798C18.7204 20.4705 18.9867 20.1281 19.215 19.8617C19.4433 19.5954 19.5384 19.3861 19.6906 19.0817C19.8428 18.7583 19.7667 18.492 19.6526 18.2637C19.5384 18.0354 18.5872 15.7143 18.2067 14.7631C17.8262 13.8499 17.4267 13.964 17.1413 13.945H16.2281C15.9047 13.945 15.41 14.0592 14.9725 14.5348C14.5539 15.0104 13.3363 16.1519 13.3363 18.4729C13.3363 20.794 15.0295 23.0389 15.2578 23.3433C15.4861 23.6667 18.5872 28.4229 23.3053 30.4586C24.4278 30.9532 25.3029 31.2386 25.9878 31.4479C27.1103 31.8093 28.1376 31.7523 28.9557 31.6381C29.8689 31.5049 31.7524 30.4966 32.1329 29.3932C32.5324 28.2897 32.5324 27.3575 32.3992 27.1482C32.266 26.939 31.9807 26.8438 31.505 26.6156Z" fill="white"/>
</g>
</svg>
