<svg width="39" height="38" viewBox="0 0 39 38" fill="none" xmlns="http://www.w3.org/2000/svg">
<path id="Vector" d="M19.8246 13.3163C16.3124 13.3163 13.4461 16.0902 13.4461 19.4892C13.4461 22.8882 16.3124 25.662 19.8246 25.662C23.3368 25.662 26.2031 22.8882 26.2031 19.4892C26.2031 16.0902 23.3368 13.3163 19.8246 13.3163ZM38.9553 19.4892C38.9553 16.933 38.9792 14.3999 38.8309 11.8484C38.6825 8.88465 37.9839 6.25436 35.7445 4.08715C33.5003 1.91531 30.7872 1.24385 27.7247 1.10029C25.0834 0.956739 22.466 0.979893 19.8294 0.979893C17.188 0.979893 14.5706 0.956739 11.934 1.10029C8.87161 1.24385 6.15369 1.91994 3.91429 4.08715C1.67009 6.25899 0.976259 8.88465 0.827922 11.8484C0.679585 14.4045 0.703511 16.9376 0.703511 19.4892C0.703511 22.0407 0.679585 24.5784 0.827922 27.13C0.976259 30.0937 1.67488 32.7239 3.91429 34.8912C6.15848 37.063 8.87161 37.7345 11.934 37.878C14.5754 38.0216 17.1928 37.9984 19.8294 37.9984C22.4707 37.9984 25.0882 38.0216 27.7247 37.878C30.7872 37.7345 33.5051 37.0584 35.7445 34.8912C37.9887 32.7193 38.6825 30.0937 38.8309 27.13C38.984 24.5784 38.9553 22.0454 38.9553 19.4892ZM19.8246 28.9869C14.3936 28.9869 10.0104 24.7451 10.0104 19.4892C10.0104 14.2332 14.3936 9.99141 19.8246 9.99141C25.2556 9.99141 29.6388 14.2332 29.6388 19.4892C29.6388 24.7451 25.2556 28.9869 19.8246 28.9869ZM30.0407 11.8206C28.7727 11.8206 27.7487 10.8296 27.7487 9.60242C27.7487 8.37526 28.7727 7.38427 30.0407 7.38427C31.3087 7.38427 32.3328 8.37526 32.3328 9.60242C32.3331 9.89382 32.2741 10.1824 32.159 10.4517C32.044 10.721 31.8752 10.9657 31.6623 11.1717C31.4494 11.3778 31.1965 11.5411 30.9183 11.6525C30.64 11.7638 30.3418 11.8209 30.0407 11.8206Z" fill="white"/>
</svg>
