<svg width="37" height="41" viewBox="0 0 37 41" fill="none" xmlns="http://www.w3.org/2000/svg">
<path id="Vector" d="M25.3983 30.481C25.7829 27.2926 23.7598 25.2597 18.4177 23.5289C15.8295 22.633 14.6106 21.4587 14.639 19.845C14.7477 18.0531 16.3913 16.7482 18.5716 16.7058C20.2886 16.7246 21.9633 17.2492 23.3919 18.216C23.5859 18.3382 23.7213 18.3178 23.8317 18.1481C23.9822 17.9038 24.3584 17.3116 24.4838 17.0961C24.569 16.9603 24.5858 16.7804 24.3701 16.6209C24.0607 16.3885 23.193 15.9167 22.7265 15.7182C21.3979 15.1475 19.9707 14.851 18.5281 14.846C15.3346 14.8596 12.8216 16.9077 12.6092 19.6414C12.4732 21.6165 13.4374 23.2156 15.5018 24.4385C15.9415 24.6964 18.3107 25.6534 19.2537 25.9521C22.2199 26.8887 23.7598 28.5687 23.397 30.5286C23.0676 32.3052 21.225 33.454 18.6853 33.4879C16.6738 33.4099 14.8614 32.5767 13.4569 31.4686L13.2212 31.282C13.0473 31.1462 12.8567 31.1547 12.7413 31.3329C12.6577 31.4635 12.1126 32.2611 11.9755 32.4698C11.8468 32.653 11.917 32.7549 12.0508 32.8669C12.636 33.364 13.4168 33.907 13.9468 34.1819C15.4149 34.9412 17.03 35.3624 18.6769 35.4156C19.8626 35.4728 21.0464 35.2678 22.1463 34.8149C23.9771 34.0258 25.1609 32.4494 25.3983 30.481ZM18.809 2.37733C15.3513 2.37733 12.5323 5.68624 12.4002 9.82663H25.2161C25.0807 5.68455 22.2633 2.37563 18.809 2.37563M31.9359 40.7217L31.8021 40.7234L5.41125 40.72C3.61552 40.6521 2.29631 39.1758 2.11573 37.3415L2.09901 37.0106L0.916909 10.6649C0.909161 10.559 0.922761 10.4527 0.956878 10.3524C0.990994 10.2521 1.04491 10.1599 1.11533 10.0814C1.18576 10.0029 1.2712 9.93989 1.36645 9.89608C1.4617 9.85228 1.56475 9.82864 1.66931 9.82663H9.98751C10.1898 4.35759 14.0605 0 18.809 0C23.5575 0 27.4248 4.35928 27.6288 9.82493H35.9353C36.0393 9.82526 36.1422 9.847 36.2377 9.88885C36.3333 9.9307 36.4194 9.99178 36.491 10.0684C36.5626 10.145 36.6181 10.2356 36.6542 10.3346C36.6903 10.4336 36.7063 10.5391 36.7011 10.6445L35.4086 37.0955L35.3969 37.3178C35.2397 39.1742 33.76 40.6725 31.9359 40.7217Z" fill="white"/>
</svg>
