<svg width="23" height="23" viewBox="0 0 23 23" fill="none" xmlns="http://www.w3.org/2000/svg">
<g id="Frame">
<path id="Vector" d="M13.6199 15.8563C12.6174 16.4565 11.4705 16.7726 10.3021 16.7705C9.45247 16.7717 8.61096 16.6049 7.82597 16.2797C7.04098 15.9546 6.328 15.4775 5.72801 14.8759C5.12639 14.2759 4.6493 13.5629 4.32416 12.7779C3.99901 11.9929 3.83222 11.1514 3.83338 10.3018C3.83338 8.51543 4.55692 6.89872 5.72801 5.72764C6.328 5.12603 7.04098 4.64893 7.82597 4.32379C8.61096 3.99864 9.45247 3.83186 10.3021 3.83301C12.0885 3.83301 13.7052 4.55656 14.8763 5.72764C15.4779 6.32763 15.955 7.04061 16.2801 7.8256C16.6053 8.61059 16.772 9.4521 16.7709 10.3018C16.7725 11.4493 16.4679 12.5764 15.8883 13.5668C15.3928 14.4121 15.4723 15.472 16.1652 16.1648L19.8577 19.8573" stroke="#111111" stroke-opacity="0.5" stroke-width="2"/>
</g>
</svg>
