<svg width="40" height="40" viewBox="0 0 40 40" fill="none" xmlns="http://www.w3.org/2000/svg">
<g id="lets-icons:money">
<g id="Group">
<path id="Vector" d="M31.1149 10.125H8.18798C6.3791 10.125 4.91272 11.5914 4.91272 13.4003V26.5013C4.91272 28.3102 6.3791 29.7766 8.18798 29.7766H31.1149C32.9237 29.7766 34.3901 28.3102 34.3901 26.5013V13.4003C34.3901 11.5914 32.9237 10.125 31.1149 10.125Z" stroke="black" stroke-opacity="0.45" stroke-width="3.22157"/>
<path id="Vector_2" d="M9.82562 15.0381H13.1009M26.202 24.8639H29.4772" stroke="black" stroke-opacity="0.45" stroke-width="3.22157" stroke-linecap="round"/>
<path id="Vector_3" d="M19.6513 23.2263C21.4602 23.2263 22.9266 21.7599 22.9266 19.951C22.9266 18.1422 21.4602 16.6758 19.6513 16.6758C17.8424 16.6758 16.376 18.1422 16.376 19.951C16.376 21.7599 17.8424 23.2263 19.6513 23.2263Z" stroke="black" stroke-opacity="0.45" stroke-width="3.22157"/>
</g>
</g>
</svg>
