<svg width="67" height="67" viewBox="0 0 67 67" fill="none" xmlns="http://www.w3.org/2000/svg">
<g id="lucide:edit">
<g id="Group">
<path id="Vector" d="M33.1638 8.29053H13.8183C12.3524 8.29053 10.9465 8.87287 9.90992 9.90943C8.87335 10.946 8.29102 12.3519 8.29102 13.8178V52.5089C8.29102 53.9748 8.87335 55.3807 9.90992 56.4173C10.9465 57.4538 12.3524 58.0362 13.8183 58.0362H52.5094C53.9753 58.0362 55.3812 57.4538 56.4177 56.4173C57.4543 55.3807 58.0366 53.9748 58.0366 52.5089V33.1633" stroke="black" stroke-opacity="0.7" stroke-width="3.99563" stroke-linecap="round" stroke-linejoin="round"/>
<path id="Vector_2" d="M50.782 7.25422C51.8815 6.15477 53.3726 5.53711 54.9275 5.53711C56.4823 5.53711 57.9735 6.15477 59.073 7.25422C60.1724 8.35367 60.7901 9.84484 60.7901 11.3997C60.7901 12.9545 60.1724 14.4457 59.073 15.5452L34.1642 40.4567C33.508 41.1123 32.6973 41.5923 31.8068 41.8523L23.8669 44.1738C23.6291 44.2431 23.377 44.2473 23.137 44.1858C22.8971 44.1243 22.678 43.9995 22.5029 43.8243C22.3277 43.6492 22.2029 43.4301 22.1414 43.1902C22.0799 42.9502 22.0841 42.6981 22.1534 42.4603L24.4749 34.5204C24.7361 33.6306 25.217 32.8209 25.8733 32.1657L50.782 7.25422Z" stroke="black" stroke-opacity="0.7" stroke-width="3.99563" stroke-linecap="round" stroke-linejoin="round"/>
</g>
</g>
</svg>
