<svg width="35" height="36" viewBox="0 0 35 36" fill="none" xmlns="http://www.w3.org/2000/svg">
<g id="material-symbols:production-quantity-limits">
<path id="Vector" d="M17.4978 14.1519C17.0846 14.1519 16.7386 14.0119 16.4596 13.7319C16.1806 13.452 16.0406 13.1059 16.0396 12.6938C16.0387 12.2816 16.1786 11.9355 16.4596 11.6556C16.7405 11.3756 17.0866 11.2356 17.4978 11.2356C17.909 11.2356 18.2555 11.3756 18.5374 11.6556C18.8193 11.9355 18.9588 12.2816 18.9559 12.6938C18.953 13.1059 18.813 13.4525 18.5359 13.7334C18.2589 14.0143 17.9128 14.1538 17.4978 14.1519ZM16.0396 9.04844V1.75781H18.9559V9.04844H16.0396ZM10.2071 32.3785C9.40516 32.3785 8.71887 32.0932 8.14826 31.5225C7.57764 30.9519 7.29185 30.2652 7.29088 29.4622C7.28991 28.6593 7.5757 27.973 8.14826 27.4033C8.72081 26.8337 9.40711 26.5479 10.2071 26.546C11.0072 26.544 11.6939 26.8298 12.2675 27.4033C12.841 27.9769 13.1263 28.6632 13.1234 29.4622C13.1205 30.2613 12.8352 30.948 12.2675 31.5225C11.6998 32.097 11.013 32.3824 10.2071 32.3785ZM24.7884 32.3785C23.9864 32.3785 23.3001 32.0932 22.7295 31.5225C22.1589 30.9519 21.8731 30.2652 21.8721 29.4622C21.8712 28.6593 22.157 27.973 22.7295 27.4033C23.3021 26.8337 23.9884 26.5479 24.7884 26.546C25.5884 26.544 26.2752 26.8298 26.8487 27.4033C27.4223 27.9769 27.7076 28.6632 27.7046 29.4622C27.7017 30.2613 27.4164 30.948 26.8487 31.5225C26.281 32.097 25.5943 32.3824 24.7884 32.3785ZM1.45837 6.13219V3.21594H6.23374L12.4308 16.3391H22.6377L28.3243 6.13219H31.6416L25.2258 17.7243C24.9585 18.2103 24.6003 18.587 24.1512 18.8543C23.7021 19.1217 23.2097 19.2553 22.6741 19.2553H11.8111L10.2071 22.1716H27.7046V25.0878H10.2071C9.11354 25.0878 8.28095 24.6139 7.70936 23.6662C7.13778 22.7184 7.11979 21.7584 7.65541 20.7864L9.62388 17.214L4.37463 6.13219H1.45837Z" fill="black" fill-opacity="0.45"/>
</g>
</svg>
