<svg width="103" height="103" viewBox="0 0 103 103" fill="none" xmlns="http://www.w3.org/2000/svg">
<path id="Vector" d="M103 22.8889V91.5555C103 94.7028 101.88 97.3979 99.6411 99.6411C97.4018 101.884 94.7066 103.004 91.5556 103H11.4444C8.29722 103 5.60396 101.88 3.36467 99.6411C1.12537 97.4018 0.00381481 94.7066 0 91.5555V11.4444C0 8.29722 1.12156 5.60396 3.36467 3.36467C5.60778 1.12537 8.30104 0.00381481 11.4444 0H80.1111L103 22.8889ZM51.5 85.8333C56.2685 85.8333 60.3218 84.1643 63.6597 80.8264C66.9977 77.4884 68.6667 73.4352 68.6667 68.6667C68.6667 63.8981 66.9977 59.8449 63.6597 56.5069C60.3218 53.169 56.2685 51.5 51.5 51.5C46.7315 51.5 42.6782 53.169 39.3403 56.5069C36.0023 59.8449 34.3333 63.8981 34.3333 68.6667C34.3333 73.4352 36.0023 77.4884 39.3403 80.8264C42.6782 84.1643 46.7315 85.8333 51.5 85.8333ZM17.1667 40.0556H68.6667V17.1667H17.1667V40.0556Z" fill="#F2D25E"/>
</svg>
